<svg height="500pt" preserveAspectRatio="xMidYMid meet" viewBox="0 0 500 500" width="500pt" xmlns="http://www.w3.org/2000/svg"><path d="m2320 4874c-166-20-217-28-300-45-350-72-706-240-995-469-103-81-284-262-365-365-261-329-430-720-497-1145-25-160-25-510 0-670 67-426 236-816 497-1145 81-103 262-284 365-365 342-271 734-438 1180-502 117-17 483-17 600 0 447 64 837 230 1180 502 103 81 284 262 365 365 166 210 312 477 393 722 94 282 122 454 122 758s-28 476-122 759c-81 243-228 512-393 721-81 103-262 284-365 365-330 262-716 430-1135 495-100 15-453 28-530 19zm-1617-1445c21-5 53-23 71-40 19-16 233-324 476-684s445-655 448-655c4 1 198 285 432 632s438 649 453 671c19 25 48 47 83 64 64 29 104 26 171-13 32-19 44-34 57-71 9-26 150-389 314-808 284-727 299-762 342-806 90-93 219-93 310 0 44 44 57 75 365 858l320 813h49c41 0 48-3 44-17-10-35-630-1599-651-1642-30-61-115-135-178-156-69-23-178-17-237 14-72 37-123 90-157 166-18 39-137 338-266 666l-234 596-3-703-2-704h-50-50v843c0 944 4 887-69 887-23 0-47-7-59-17-10-10-232-333-492-718-259-385-477-706-484-713-9-9-113 138-486 690-261 386-486 714-498 730-18 21-32 28-60 28-43 0-55-7-71-37-8-16-11-247-11-857v-836h-45-45v851c0 753 2 855 16 884 20 43 44 64 91 81 47 16 58 17 106 3z" transform="matrix(.1 0 0 -.1 0 500)"/></svg>